<svg xmlns="http://www.w3.org/2000/svg" viewBox="0 0 64 64" fill="none" aria-hidden="true">
  <!-- 부평우리치과 로고 마크: 3장 둥근 꽃잎 -->
  <!-- 왼쪽 꽃잎 (살짝 기울어짐) -->
  <path d="M30 52 C 14 48, 6 34, 12 18 C 14 14, 20 13, 25 16 C 32 21, 35 32, 32 44 C 31.4 47, 30.6 50, 30 52 Z"
        fill="#6DBBB9"/>
  <!-- 오른쪽 꽃잎 -->
  <path d="M34 52 C 50 48, 58 34, 52 18 C 50 14, 44 13, 39 16 C 32 21, 29 32, 32 44 C 32.6 47, 33.4 50, 34 52 Z"
        fill="#6DBBB9"/>
  <!-- 가운데 꽃잎 (위로 솟은) -->
  <path d="M32 54 C 26 46, 22 32, 28 16 C 30 12, 34 12, 36 16 C 42 32, 38 46, 32 54 Z"
        fill="#6DBBB9"/>
</svg>
